<svg xmlns="http://www.w3.org/2000/svg" xmlns:xlink="http://www.w3.org/1999/xlink" width="428" height="926" viewBox="0 0 428 926">
  <defs>
    <clipPath id="clip-path">
      <rect id="Rectangle_5" data-name="Rectangle 5" width="428" height="926" fill="#fff"/>
    </clipPath>
  </defs>
  <g id="Mask_Group_1" data-name="Mask Group 1" clip-path="url(#clip-path)">
    <rect id="Rectangle_4" data-name="Rectangle 4" width="428" height="926" fill="#b1292c"/>
    <path id="football" d="M36.589,0A36.487,36.487,0,1,0,73.178,36.487,36.539,36.539,0,0,0,36.589,0ZM64.924,17.5,62.389,28.251,49.03,32.69,37.809,23.74V10.552L50.615,5.445A34.332,34.332,0,0,1,64.924,17.5Zm.208,37.647-12.1,1.9-6.586-8.675L49.806,35l13.208-4.39,7.568,9.056a33.771,33.771,0,0,1-5.453,15.484ZM20.2,57.061,8.05,55.15A33.776,33.776,0,0,1,2.6,39.662l7.562-9.056L23.37,35l3.358,13.387ZM2.45,36.033a33.76,33.76,0,0,1,4-15.542l1.976,8.392ZM29,47.433,25.768,34.514l10.816-8.632,10.823,8.635L44.174,47.433ZM64.747,28.878l1.976-8.392a33.758,33.758,0,0,1,4,15.543ZM47.289,4.148l-10.7,4.273L25.832,4.169a34.115,34.115,0,0,1,21.457-.021ZM22.5,5.473l12.865,5.082V23.741L24.149,32.69l-13.36-4.44L8.253,17.5A34.339,34.339,0,0,1,22.5,5.472ZM10.088,57.933,20,59.5l6,9.368a34.264,34.264,0,0,1-15.912-10.93ZM29.494,69.8l-7.28-11.362,6.448-8.57h15.85l6.537,8.608L44.706,69.556a34.137,34.137,0,0,1-15.216.244ZM48.1,68.545l5.2-9.072,9.8-1.541a34.28,34.28,0,0,1-15,10.613Zm0,0" transform="translate(-16.014 -19.058)" fill="#fff" opacity="0.3" stroke="rgba(255,255,255,0)" stroke-width="1"/>
    <path id="shoe_1_" data-name="shoe (1)" d="M66.118,15.782,24.8.045A1.22,1.22,0,0,0,23.624.22C18.309,4.307,13.483,5.983,9.282,5.211A11.183,11.183,0,0,1,2.26.584,1.22,1.22,0,0,0,0,1.214L-.035,24.345c-.008,5.682,4.3,7.177,4.479,7.236a1.21,1.21,0,0,0,.384.062l1.22,0,0,3.652A1.214,1.214,0,0,0,7.26,36.512l4.874-.006a1.222,1.222,0,0,0,1.219-1.22l0-3.653,3.655,0,0,3.652A1.214,1.214,0,0,0,18.226,36.5L23.1,36.49a1.222,1.222,0,0,0,1.22-1.219l0-3.654L36.509,31.6l0,3.652a1.214,1.214,0,0,0,1.217,1.218l4.874-.006a1.222,1.222,0,0,0,1.22-1.219l0-3.654,3.655,0,0,3.652a1.214,1.214,0,0,0,1.216,1.218l4.874-.006a1.222,1.222,0,0,0,1.22-1.219l0-3.654,3.655,0,0,3.652a1.214,1.214,0,0,0,1.217,1.218l4.874-.006a1.222,1.222,0,0,0,1.22-1.219l0-3.654a7.069,7.069,0,0,0,7.32-7.314,8.674,8.674,0,0,0-6.95-8.466ZM18.675,18.49,34.255,6.252,37.807,7.6,21.566,20.593c-.872-.7-1.84-1.4-2.889-2.1ZM40.439,8.61,54.63,14.016C37.855,17.112,34.769,25.909,34.2,29.17l-6.338.008q-.59-3.371-4.426-6.967ZM8.787,7.6c4.765.895,10.072-.8,15.773-5.037L31.6,5.243,16.51,17.1c-.617-.377-1.246-.756-1.916-1.139A104.447,104.447,0,0,0,2.421,10.121l.008-5.681A13.2,13.2,0,0,0,8.787,7.6ZM2.4,24.342l.015-11.6c7.269,2.979,21.321,9.978,22.962,16.436l-20.313.027A4.967,4.967,0,0,1,2.4,24.342Zm8.516,9.728-2.436,0,0-2.435,2.436,0Zm10.966-.015-2.436,0,0-2.435,2.436,0Zm19.5-.026-2.436,0,0-2.435,2.436,0Zm10.966-.015-2.436,0,0-2.435,2.436,0ZM63.311,34l-2.436,0,0-2.435,2.436,0Zm2.443-4.873-29.06.039c.731-3.137,4.4-11.382,22.615-13.371l6.023,2.3a1.12,1.12,0,0,0,.2.056c.208.042,5.116,1.073,5.109,6.1a4.7,4.7,0,0,1-4.89,4.876Zm0,0" transform="translate(68.381 120.322) rotate(36.011)" fill="#fff" opacity="0.3"  stroke="rgba(255,255,255,0)" stroke-width="1"/>
    <path id="shoe_1_2" data-name="shoe (1)" d="M66.118,15.782,24.8.045A1.22,1.22,0,0,0,23.624.22C18.309,4.307,13.483,5.983,9.282,5.211A11.183,11.183,0,0,1,2.26.584,1.22,1.22,0,0,0,0,1.214L-.035,24.345c-.008,5.682,4.3,7.177,4.479,7.236a1.21,1.21,0,0,0,.384.062l1.22,0,0,3.652A1.214,1.214,0,0,0,7.26,36.512l4.874-.006a1.222,1.222,0,0,0,1.219-1.22l0-3.653,3.655,0,0,3.652A1.214,1.214,0,0,0,18.226,36.5L23.1,36.49a1.222,1.222,0,0,0,1.22-1.219l0-3.654L36.509,31.6l0,3.652a1.214,1.214,0,0,0,1.217,1.218l4.874-.006a1.222,1.222,0,0,0,1.22-1.219l0-3.654,3.655,0,0,3.652a1.214,1.214,0,0,0,1.216,1.218l4.874-.006a1.222,1.222,0,0,0,1.22-1.219l0-3.654,3.655,0,0,3.652a1.214,1.214,0,0,0,1.217,1.218l4.874-.006a1.222,1.222,0,0,0,1.22-1.219l0-3.654a7.069,7.069,0,0,0,7.32-7.314,8.674,8.674,0,0,0-6.95-8.466ZM18.675,18.49,34.255,6.252,37.807,7.6,21.566,20.593c-.872-.7-1.84-1.4-2.889-2.1ZM40.439,8.61,54.63,14.016C37.855,17.112,34.769,25.909,34.2,29.17l-6.338.008q-.59-3.371-4.426-6.967ZM8.787,7.6c4.765.895,10.072-.8,15.773-5.037L31.6,5.243,16.51,17.1c-.617-.377-1.246-.756-1.916-1.139A104.447,104.447,0,0,0,2.421,10.121l.008-5.681A13.2,13.2,0,0,0,8.787,7.6ZM2.4,24.342l.015-11.6c7.269,2.979,21.321,9.978,22.962,16.436l-20.313.027A4.967,4.967,0,0,1,2.4,24.342Zm8.516,9.728-2.436,0,0-2.435,2.436,0Zm10.966-.015-2.436,0,0-2.435,2.436,0Zm19.5-.026-2.436,0,0-2.435,2.436,0Zm10.966-.015-2.436,0,0-2.435,2.436,0ZM63.311,34l-2.436,0,0-2.435,2.436,0Zm2.443-4.873-29.06.039c.731-3.137,4.4-11.382,22.615-13.371l6.023,2.3a1.12,1.12,0,0,0,.2.056c.208.042,5.116,1.073,5.109,6.1a4.7,4.7,0,0,1-4.89,4.876Zm0,0" transform="translate(325.381 36.203) rotate(36.011)" fill="#fff" opacity="0.3" stroke="rgba(255,255,255,0)" stroke-width="1" />
    <path id="goal-box" d="M71.958,0H1.22A1.218,1.218,0,0,0,0,1.217V45a1.218,1.218,0,0,0,1.22,1.217H6.1a1.222,1.222,0,0,0,.862-.357L12.7,40.136H60.476l5.741,5.725a1.222,1.222,0,0,0,.862.357h4.879A1.218,1.218,0,0,0,73.178,45V1.217A1.218,1.218,0,0,0,71.958,0ZM50.544,37.7H44.938l-1.05-1.044,3.848-3.837,3.848,3.845ZM21.583,36.666l3.855-3.845,3.848,3.837L28.238,37.7h-5.6ZM59.762,17.392l-.872.87-3.848-3.837,1.04-1.037H59.76ZM25.442,21.7l3.848,3.837-3.848,3.837-3.848-3.837Zm-5.578,2.117-3.848-3.845,3.848-3.837,3.848,3.845Zm7.3-3.837,3.848-3.837,3.848,3.837-3.848,3.837Zm3.848,7.276L34.857,31.1l-3.848,3.837L27.161,31.1Zm1.724-1.72L36.581,21.7l3.848,3.837-3.848,3.837Zm5.575-5.559,3.848-3.837L46,19.982l-3.848,3.837Zm3.848,7.279L46,31.1l-3.848,3.837L38.308,31.1Zm1.732-1.721L47.736,21.7l3.848,3.837-3.848,3.837Zm5.574-5.557,3.855-3.845,3.848,3.837-3.855,3.845Zm1.082-6.605,1.04,1.037-3.848,3.849-3.848-3.837,1.046-1.049Zm-11.155,0,1.048,1.044L36.589,18.26l-3.848-3.837,1.04-1.044Zm-11.146,0,1.048,1.044L25.444,18.26l-3.856-3.845,1.04-1.037Zm-11.15,0,1.04,1.037-3.848,3.837-.869-.861V13.379ZM13.416,28.52V22.566l.872-.87,3.855,3.845-3.855,3.845Zm6.448-1.255L23.712,31.1l-3.848,3.839L16.016,31.1Zm12.873,9.4,3.848-3.837,3.848,3.837-1.04,1.044h-5.61ZM49.462,31.1l3.848-3.837L57.166,31.1l-3.848,3.837Zm5.572-5.557L58.89,21.7l.872.87V28.52l-.872.87ZM62.2,12.666,65.86,9.018V42.065L62.2,38.416Zm-1.725-1.721H12.7L9.042,7.3H64.135ZM7.317,9.018l3.659,3.649V38.415l-3.659,3.65Zm6.1,24.673.872-.87,3.848,3.837L17.1,37.7h-3.68ZM56.084,37.7l-1.04-1.037,3.848-3.837.872.865v4.014Zm14.654,6.082H68.3V6.082A1.218,1.218,0,0,0,67.08,4.865H6.1A1.218,1.218,0,0,0,4.879,6.082v37.7H2.439V2.432h68.3Zm0,0" transform="translate(354.822 166.337)" fill="#fff" opacity="0.3" stroke="rgba(255,255,255,0)" stroke-width="1"/>
    <g id="Group_1346" data-name="Group 1346" transform="translate(4.845 763.411)" opacity="0.75">
      <path id="Path_11310" data-name="Path 11310" d="M320.843,122.377l-10.378-17.934-10.377,17.934L289.71,140.443h41.645Z" transform="translate(-14.411 24.18)" fill="#fff" opacity="0.3" stroke="rgba(255,255,255,0.2)" stroke-linecap="round" stroke-linejoin="round" stroke-miterlimit="10" stroke-width="3"/>
      <path id="Path_11311" data-name="Path 11311" d="M53.873,23.594,58.28,7,41.64,11.505,25,15.9,37.233,28.1,49.464,40.187Z" transform="translate(-25 20.565)" fill="#fff" opacity="0.3" stroke="rgba(255,255,255,0.2)" stroke-linecap="round" stroke-linejoin="round" stroke-miterlimit="10" stroke-width="3"/>
      <path id="Path_11312" data-name="Path 11312" d="M128.96,130.445A12.48,12.48,0,1,1,116.48,118a12.463,12.463,0,0,1,12.48,12.445Z" transform="translate(-21.84 24.683)" fill="none" stroke="rgba(255,255,255,0.4)" stroke-linecap="round" stroke-linejoin="round" stroke-miterlimit="10" stroke-width="5"/>
      <path id="Path_11313" data-name="Path 11313" d="M416.437,109.758a15.686,15.686,0,1,1-15.719-27.151" transform="translate(-10.285 23.37)" fill="#fff" opacity="0.3" stroke="rgba(255,255,255,0.25)" stroke-linecap="round" stroke-linejoin="round" stroke-miterlimit="10" stroke-width="3"/>
      <path id="Path_11314" data-name="Path 11314" d="M343.012-18.023a1.558,1.558,0,0,0-1.56-1.556,1.558,1.558,0,0,0-1.56,1.556,6.863,6.863,0,0,0,1.892,4.883,14.023,14.023,0,0,0,3.629,2.563l.385.207a14.212,14.212,0,0,1,2.568,1.6,2.348,2.348,0,0,1,.936,1.9,2.348,2.348,0,0,1-.936,1.9,14.211,14.211,0,0,1-2.568,1.6h0l-.385.207A14.027,14.027,0,0,0,341.784-.6a6.863,6.863,0,0,0-1.892,4.883v.1a6.863,6.863,0,0,0,1.892,4.883,14.027,14.027,0,0,0,3.629,2.565l.384.207h0a14.213,14.213,0,0,1,2.568,1.6,2.381,2.381,0,0,1,0,3.792,14.214,14.214,0,0,1-2.568,1.6h0l-.385.207a14.028,14.028,0,0,0-3.629,2.565,6.863,6.863,0,0,0-1.892,4.883,1.56,1.56,0,0,0,3.12,0,3.764,3.764,0,0,1,1.05-2.757,11.128,11.128,0,0,1,2.842-1.957l.381-.207h0a16.957,16.957,0,0,0,3.133-2,5.479,5.479,0,0,0,0-8.467,16.96,16.96,0,0,0-3.132-2h0L346.9,9.1a11.13,11.13,0,0,1-2.837-1.958,3.764,3.764,0,0,1-1.05-2.757v-.1a3.764,3.764,0,0,1,1.05-2.758A11.128,11.128,0,0,1,346.9-.429l.387-.207a16.956,16.956,0,0,0,3.132-2,5.433,5.433,0,0,0,2-4.228m0,0a5.434,5.434,0,0,0-2-4.233,16.957,16.957,0,0,0-3.132-2h0L346.9-13.3a11.128,11.128,0,0,1-2.842-1.965,3.764,3.764,0,0,1-1.051-2.757" transform="translate(-12.404 19.579)" fill="#fff" opacity="0.3" fill-rule="evenodd"/>
      <path id="Path_11315" data-name="Path 11315" d="M342.725,130.19l-10.51-18.066L321.836,130.19l-10.378,17.934H353.1Z" transform="translate(-13.541 24.465)" fill="#fff" opacity="0.3" stroke="rgba(1,48,136,0.15)" stroke-miterlimit="10" stroke-width="2"/>
      <path id="Path_11316" data-name="Path 11316" d="M66.381,31.482,70.04,18,56.565,21.572,43,25.232l9.906,9.821,9.9,9.912Z" transform="translate(-24.28 20.973)" fill="#fff" opacity="0.3" stroke="rgba(1,48,136,0.1)" stroke-miterlimit="10" stroke-width="2"/>
      <path id="Path_11317" data-name="Path 11317" d="M151.376,130.2a15.773,15.773,0,1,1-4.619-11.188,15.811,15.811,0,0,1,4.619,11.188Z" transform="translate(-21.211 24.549)" fill="#fff" opacity="0.3" stroke="rgba(1,48,136,0.25)" stroke-miterlimit="10" stroke-width="2"/>
      <path id="Path_11318" data-name="Path 11318" d="M428.127,106.252A15.687,15.687,0,1,1,412.408,79.1" transform="translate(-9.817 23.24)" fill="#fff" opacity="0.3" stroke="rgba(1,48,136,0.5)" stroke-miterlimit="10" stroke-width="1"/>
      <path id="Path_11319" data-name="Path 11319" d="M367.714,24.245c0,5.37-9.413,4.441-9.413,11.154" transform="translate(-11.667 21.205)" fill="#fff" opacity="0.3" stroke="rgba(1,48,136,0.15)" stroke-miterlimit="10" stroke-width="2"/>
      <path id="Path_11320" data-name="Path 11320" d="M367.714,2.635c0,5.37-9.413,4.441-9.413,11.154" transform="translate(-11.667 20.403)" fill="#fff" opacity="0.3" stroke="rgba(1,48,136,0.15)" stroke-miterlimit="10" stroke-width="2"/>
      <path id="Path_11321" data-name="Path 11321" d="M367.714,24.644c0-5.37-9.413-4.441-9.413-11.154" transform="translate(-11.667 20.806)" fill="#fff" opacity="0.3" stroke="rgba(1,48,136,0.15)" stroke-miterlimit="10" stroke-width="2"/>
      <path id="Path_11322" data-name="Path 11322" d="M367.714,3.034c0-5.37-9.413-4.441-9.413-11.154" transform="translate(-11.667 20.004)" fill="#fff" opacity="0.3" stroke="rgba(1,48,136,0.15)" stroke-miterlimit="10" stroke-width="2"/>
      <path id="Path_11323" data-name="Path 11323" d="M37.281,90.941a6.178,6.178,0,1,1,2-8.5,6.059,6.059,0,0,1-2,8.5Z" transform="translate(-24.887 23.256)" fill="#fff" opacity="0.3" stroke="rgba(1,48,136,0.1)" stroke-linecap="round" stroke-linejoin="round" stroke-miterlimit="10" stroke-width="3"/>
    </g>
  </g>
</svg>
