<svg xmlns="http://www.w3.org/2000/svg" xmlns:xlink="http://www.w3.org/1999/xlink" width="428" height="926" viewBox="0 0 428 926">
  <defs>
    <clipPath id="clip-path">
      <rect id="Rectangle_2" data-name="Rectangle 2" width="430.561" height="929.242" fill="none"/>
    </clipPath>
    <clipPath id="clip-path-2">
      <rect id="Rectangle_1" data-name="Rectangle 1" width="430.561" height="731.155" fill="none"/>
    </clipPath>
    <clipPath id="clip-بحيرة_طبرية_1">
      <rect width="428" height="926"/>
    </clipPath>
  </defs>
  <g id="بحيرة_طبرية_1" data-name="بحيرة طبرية – 1" clip-path="url(#clip-بحيرة_طبرية_1)">
    <rect width="428" height="926" fill="#fff"/>
    <g id="Repeat_Grid_2" data-name="Repeat Grid 2" transform="translate(-2.561)" clip-path="url(#clip-path)">
      <g id="Group_2" data-name="Group 2">
        <rect id="Rectangle_262" data-name="Rectangle 262" width="430.561" height="500.242" fill="#b1292c"/>
        <g id="Repeat_Grid_1" data-name="Repeat Grid 1" transform="translate(0 198.086)" clip-path="url(#clip-path-2)">
          <g id="Group_1" data-name="Group 1" transform="translate(0 0)">
            <path id="Rectangle_264" data-name="Rectangle 264" d="M52,0H430.561V731.156H0V51.855A51.928,51.928,0,0,1,52,0Z" transform="translate(0 0)" fill="#fff"/>
          </g>
        </g>
      </g>
    </g>
    <path id="shoe_1_" data-name="shoe (1)" d="M67.594,17.713,26.518,2.009a1.21,1.21,0,0,0-1.171.172C20.072,6.24,15.278,7.9,11.1,7.127A11.149,11.149,0,0,1,4.118,2.517,1.211,1.211,0,0,0,1.87,3.14v23c0,5.65,4.277,7.143,4.46,7.2a1.2,1.2,0,0,0,.382.062H7.923v3.632a1.211,1.211,0,0,0,1.211,1.213h4.843a1.211,1.211,0,0,0,1.21-1.212V33.408h3.632V37.04a1.211,1.211,0,0,0,1.211,1.213h4.843a1.211,1.211,0,0,0,1.211-1.211V33.408H38.192v3.632A1.211,1.211,0,0,0,39.4,38.252h4.843a1.211,1.211,0,0,0,1.211-1.211V33.407H49.09v3.632a1.211,1.211,0,0,0,1.21,1.213h4.843a1.211,1.211,0,0,0,1.211-1.211V33.406h3.632v3.632A1.211,1.211,0,0,0,61.2,38.251H66.04a1.211,1.211,0,0,0,1.211-1.211V33.406a7.006,7.006,0,0,0,7.265-7.264A8.653,8.653,0,0,0,67.6,17.713ZM20.453,20.346,35.92,8.194l3.531,1.349L23.328,22.44c-.867-.694-1.83-1.393-2.873-2.095Zm21.615-9.8,14.108,5.395C39.511,19,36.456,27.744,35.892,30.986h-6.3q-.59-3.353-4.407-6.935ZM10.613,9.5c4.736.9,10.008-.779,15.668-4.989l7,2.678L18.3,18.957c-.613-.376-1.239-.754-1.906-1.136A104.064,104.064,0,0,0,4.291,12V6.352A13.156,13.156,0,0,0,10.613,9.5ZM4.291,26.145V14.611c7.227,2.972,21.2,9.951,22.838,16.375H6.944a4.955,4.955,0,0,1-2.653-4.843Zm8.475,9.686H10.345V33.408h2.421Zm10.9,0H21.241V33.408h2.421Zm19.373,0H40.614V33.407h2.421Zm10.9,0H51.511V33.407h2.421Zm10.9,0H62.407V33.406h2.421Zm2.421-4.843H38.373c.723-3.119,4.353-11.315,22.455-13.269l5.988,2.291a1.114,1.114,0,0,0,.2.056c.206.042,5.085,1.073,5.085,6.078a4.662,4.662,0,0,1-4.853,4.843Zm0,0" transform="translate(325.089 25.547) rotate(36.011)" fill="rgba(255,255,255,0.3)" stroke="rgba(255,255,255,0)" stroke-width="1"/>
    <path id="shoe_1_2" data-name="shoe (1)" d="M67.594,17.713,26.518,2.009a1.21,1.21,0,0,0-1.171.172C20.072,6.24,15.278,7.9,11.1,7.127A11.149,11.149,0,0,1,4.118,2.517,1.211,1.211,0,0,0,1.87,3.14v23c0,5.65,4.277,7.143,4.46,7.2a1.2,1.2,0,0,0,.382.062H7.923v3.632a1.211,1.211,0,0,0,1.211,1.213h4.843a1.211,1.211,0,0,0,1.21-1.212V33.408h3.632V37.04a1.211,1.211,0,0,0,1.211,1.213h4.843a1.211,1.211,0,0,0,1.211-1.211V33.408H38.192v3.632A1.211,1.211,0,0,0,39.4,38.252h4.843a1.211,1.211,0,0,0,1.211-1.211V33.407H49.09v3.632a1.211,1.211,0,0,0,1.21,1.213h4.843a1.211,1.211,0,0,0,1.211-1.211V33.406h3.632v3.632A1.211,1.211,0,0,0,61.2,38.251H66.04a1.211,1.211,0,0,0,1.211-1.211V33.406a7.006,7.006,0,0,0,7.265-7.264A8.653,8.653,0,0,0,67.6,17.713ZM20.453,20.346,35.92,8.194l3.531,1.349L23.328,22.44c-.867-.694-1.83-1.393-2.873-2.095Zm21.615-9.8,14.108,5.395C39.511,19,36.456,27.744,35.892,30.986h-6.3q-.59-3.353-4.407-6.935ZM10.613,9.5c4.736.9,10.008-.779,15.668-4.989l7,2.678L18.3,18.957c-.613-.376-1.239-.754-1.906-1.136A104.064,104.064,0,0,0,4.291,12V6.352A13.156,13.156,0,0,0,10.613,9.5ZM4.291,26.145V14.611c7.227,2.972,21.2,9.951,22.838,16.375H6.944a4.955,4.955,0,0,1-2.653-4.843Zm8.475,9.686H10.345V33.408h2.421Zm10.9,0H21.241V33.408h2.421Zm19.373,0H40.614V33.407h2.421Zm10.9,0H51.511V33.407h2.421Zm10.9,0H62.407V33.406h2.421Zm2.421-4.843H38.373c.723-3.119,4.353-11.315,22.455-13.269l5.988,2.291a1.114,1.114,0,0,0,.2.056c.206.042,5.085,1.073,5.085,6.078a4.662,4.662,0,0,1-4.853,4.843Zm0,0" transform="translate(86.599 96.266) rotate(36.011)" fill="rgba(255,255,255,0.3)" stroke="rgba(255,255,255,0)" stroke-width="1"/>
    <path id="goal-box" d="M71.438,0H1.211A1.211,1.211,0,0,0,0,1.211V44.8a1.211,1.211,0,0,0,1.211,1.211H6.055a1.211,1.211,0,0,0,.856-.355l5.7-5.7H60.039l5.7,5.7a1.211,1.211,0,0,0,.856.355h4.843A1.211,1.211,0,0,0,72.649,44.8V1.211A1.211,1.211,0,0,0,71.438,0ZM50.179,37.532H44.614l-1.043-1.04,3.82-3.82,3.82,3.827ZM21.427,36.5l3.827-3.827,3.82,3.82-1.041,1.04H22.472Zm37.9-19.186-.865.866-3.82-3.82,1.032-1.032h3.651ZM25.258,21.606l3.82,3.82-3.82,3.82-3.82-3.82Zm-5.537,2.107L15.9,19.886l3.82-3.82,3.82,3.827Zm7.244-3.82,3.82-3.82,3.82,3.82-3.82,3.82Zm3.82,7.243,3.82,3.82-3.82,3.82-3.82-3.82ZM32.5,25.425l3.82-3.82,3.82,3.82-3.82,3.82Zm5.535-5.534,3.82-3.82,3.82,3.82-3.82,3.82Zm3.82,7.246,3.82,3.82-3.82,3.82-3.82-3.82Zm1.719-1.713,3.82-3.82,3.82,3.82-3.82,3.82Zm5.534-5.532,3.827-3.827,3.82,3.82-3.827,3.827Zm1.074-6.575,1.032,1.032-3.82,3.831-3.82-3.82,1.039-1.044Zm-11.074,0,1.041,1.04-3.82,3.82-3.82-3.82,1.032-1.04Zm-11.065,0,1.041,1.04-3.82,3.82L21.431,14.35l1.032-1.032Zm-11.069,0L18,14.35l-3.82,3.82-.863-.857v-4ZM13.319,28.391V22.464l.865-.866,3.827,3.827-3.827,3.827Zm6.4-1.249,3.82,3.82-3.82,3.822-3.82-3.82ZM32.5,36.5l3.82-3.82,3.82,3.82-1.032,1.04H33.539Zm16.6-5.541,3.82-3.82,3.827,3.827-3.82,3.82Zm5.532-5.532L58.465,21.6l.865.866v5.927l-.865.866Zm7.115-12.816,3.632-3.632v32.9l-3.632-3.632ZM60.039,10.9H12.61L8.976,7.264h54.7ZM7.265,8.977,10.9,12.609V38.241L7.265,41.874Zm6.055,24.561.865-.866L18,36.491l-1.032,1.041H13.319Zm42.36,4L54.646,36.5l3.82-3.82.865.861v4Zm14.548,6.054H67.806V6.054A1.211,1.211,0,0,0,66.6,4.843H6.053a1.211,1.211,0,0,0-1.21,1.211V43.586H2.421V2.421H70.228Zm0,0" transform="translate(369.618 149.783)" fill="rgba(255,255,255,0.3)" stroke="rgba(255,255,255,0)" stroke-width="1"/>
    <path id="football" d="M36.325,0A36.322,36.322,0,1,0,72.649,36.321,36.324,36.324,0,0,0,36.325,0Zm28.13,17.423-2.517,10.7-13.262,4.42-11.14-8.91V10.5L50.249,5.42a34.107,34.107,0,0,1,14.206,12ZM64.662,54.9l-12.008,1.9-6.539-8.636L49.446,34.84l13.113-4.37,7.513,9.015A33.677,33.677,0,0,1,64.659,54.9Zm-44.6,1.9L7.991,54.9a33.682,33.682,0,0,1-5.41-15.418l7.507-9.015L23.2,34.837l3.334,13.326ZM2.433,35.869A33.678,33.678,0,0,1,6.4,20.4l1.962,8.354ZM28.794,47.218,25.582,34.357,36.32,25.764l10.745,8.6-3.21,12.857ZM64.28,28.747l1.962-8.354a33.676,33.676,0,0,1,3.975,15.472ZM46.947,4.13,36.324,8.383,25.645,4.15a33.782,33.782,0,0,1,21.3-.021ZM22.342,5.448l12.772,5.059V23.634l-11.14,8.909-13.263-4.42-2.517-10.7A34.115,34.115,0,0,1,22.339,5.447ZM10.015,57.67l9.843,1.555,5.954,9.326a34.014,34.014,0,0,1-15.8-10.88ZM29.281,69.48,22.054,58.169l6.4-8.531H44.191l6.49,8.569-6.3,11.033a33.8,33.8,0,0,1-15.106.243Zm18.471-1.246,5.162-9.03,9.726-1.534A34.034,34.034,0,0,1,47.753,68.234Zm0,0" transform="translate(-24.605 -16.225)" fill="rgba(255,255,255,0.3)" stroke="rgba(255,255,255,0)" stroke-width="1"/>
  </g>
</svg>
