<svg xmlns="http://www.w3.org/2000/svg" width="428" height="797" viewBox="0 0 428 797">
	<g id="Union_1" data-name="Union 1" fill="#fff">
		<path d="M 427.5003967285156 796.5004272460938 L 0.4999983608722687 796.5004272460938 L 0.4999983608722687 100.9998168945312 C 0.4999983608722687 94.18221282958984 1.835198402404785 87.56871032714844 4.468398571014404 81.34321594238281 C 7.011898517608643 75.32991027832031 10.65329837799072 69.92921447753906 15.29129791259766 65.29131317138672 C 19.92929840087891 60.65331268310547 25.33009910583496 57.01211547851562 31.34359741210938 54.46871185302734 C 37.56919860839844 51.83551406860352 44.18259811401367 50.50041198730469 51.00029754638672 50.50041198730469 L 139.1439056396484 50.50041198730469 L 139.4779052734375 50.50041198730469 L 139.6058044433594 50.19191360473633 C 142.6036987304688 42.9614143371582 146.6443023681641 36.20871353149414 151.6152038574219 30.12131309509277 C 156.5491943359375 24.07891273498535 162.3173980712891 18.79181289672852 168.7595977783203 14.40661334991455 C 182.1248931884766 5.308813571929932 197.7689056396484 0.5000136494636536 214.0001983642578 0.5000136494636536 C 230.231201171875 0.5000136494636536 245.875 5.308813571929932 259.2402954101562 14.40661334991455 C 265.6825866699219 18.79181289672852 271.4508056640625 24.07901382446289 276.3848876953125 30.12131309509277 C 281.3558959960938 36.20871353149414 285.396484375 42.96151351928711 288.3945007324219 50.19191360473633 L 288.5223999023438 50.50041198730469 L 288.8563842773438 50.50041198730469 L 377.0000915527344 50.50041198730469 C 383.8178100585938 50.50041198730469 390.4312133789062 51.83551406860352 396.6567993164062 54.46871185302734 C 402.6702880859375 57.01211547851562 408.0711059570312 60.65331268310547 412.7091064453125 65.29131317138672 C 417.3471069335938 69.92921447753906 420.9884948730469 75.32991027832031 423.5320129394531 81.34321594238281 C 426.1651916503906 87.56871032714844 427.5003967285156 94.18221282958984 427.5003967285156 100.9998168945312 L 427.5003967285156 796.5004272460938 Z" stroke="none" />
		<path d="M 427.0003967285156 796.0004272460938 L 427.0003967285156 100.9998168945312 C 427.0003967285156 94.24941253662109 425.6784973144531 87.70161437988281 423.0715026855469 81.53801727294922 C 420.5531921386719 75.58421325683594 416.9477844238281 70.23701477050781 412.3555908203125 65.64481353759766 C 407.7633056640625 61.05271530151367 402.4158935546875 57.44741439819336 396.4620971679688 54.92921447753906 C 390.2984008789062 52.32221221923828 383.75048828125 51.00041198730469 377.0000915527344 51.00041198730469 L 288.1885070800781 51.00041198730469 L 287.9327087402344 50.38341522216797 C 284.9533081054688 43.19801330566406 280.9378051757812 36.48721313476562 275.9975891113281 30.43751335144043 C 271.093994140625 24.43251419067383 265.3613891601562 19.17801284790039 258.958984375 14.81991386413574 C 245.677001953125 5.77881383895874 230.1304931640625 1.000013589859009 214.0001983642578 1.000013589859009 C 197.8695983886719 1.000013589859009 182.322998046875 5.77881383895874 169.0410003662109 14.81991386413574 C 162.6385955810547 19.17801284790039 156.906005859375 24.43251419067383 152.0025024414062 30.43751335144043 C 147.0623931884766 36.48721313476562 143.0469055175781 43.19801330566406 140.0675964355469 50.38341522216797 L 139.8117980957031 51.00041198730469 L 51.00029754638672 51.00041198730469 C 44.24989700317383 51.00041198730469 37.70199966430664 52.32221221923828 31.53829765319824 54.92921447753906 C 25.58449745178223 57.44741439819336 20.23709869384766 61.05271530151367 15.64479827880859 65.64481353759766 C 11.05259799957275 70.23701477050781 7.447198390960693 75.58421325683594 4.928898334503174 81.53801727294922 C 2.321898460388184 87.70161437988281 0.9999983906745911 94.24941253662109 0.9999983906745911 100.9998168945312 L 0.9999983906745911 796.0004272460938 L 427.0003967285156 796.0004272460938 M 428.0003967285156 797.0004272460938 L -1.635742137295892e-06 797.0004272460938 L -1.635742137295892e-06 100.9998168945312 C -1.635742137295892e-06 72.83341217041016 22.83389854431152 50.00041198730469 51.00029754638672 50.00041198730469 L 139.1439056396484 50.00041198730469 C 151.3141021728516 20.64851379394531 180.2465972900391 1.362304647045676e-05 214.0001983642578 1.362304647045676e-05 C 247.7530975341797 1.362304647045676e-05 276.6859130859375 20.64851379394531 288.8563842773438 50.00041198730469 L 377.0000915527344 50.00041198730469 C 405.16650390625 50.00041198730469 428.0003967285156 72.83341217041016 428.0003967285156 100.9998168945312 L 428.0003967285156 797.0004272460938 Z" stroke="none" fill="#707070" />
	</g>
</svg>
