<svg xmlns="http://www.w3.org/2000/svg" width="14.667" height="16" viewBox="0 0 14.667 16">
  <g id="ringing" transform="translate(-1)">
    <circle id="Ellipse_54" data-name="Ellipse 54" cx="2.197" cy="2.197" r="2.197" transform="translate(6.136 11.136)" fill="#f0f0f0"/>
    <path id="Path_631" data-name="Path 631" d="M14.919,12.941a4.464,4.464,0,0,1-1.586-3.416V7.667A4.667,4.667,0,1,0,4,7.667V9.525a4.47,4.47,0,0,1-1.592,3.422A1.166,1.166,0,0,0,3.167,15h11a1.167,1.167,0,0,0,.753-2.059Z" transform="translate(-0.333 -1)" fill="#f0f0f0"/>
    <path id="Path_632" data-name="Path 632" d="M20.877,7.539a.5.5,0,0,1-.5-.5,7.121,7.121,0,0,0-2.1-5.068.5.5,0,1,1,.707-.707,8.116,8.116,0,0,1,2.391,5.775A.5.5,0,0,1,20.877,7.539Z" transform="translate(-5.711 -0.372)" fill="#7fccb4"/>
    <path id="Path_633" data-name="Path 633" d="M1.5,7.539a.5.5,0,0,1-.5-.5A8.112,8.112,0,0,1,3.392,1.265a.5.5,0,0,1,.707.707A7.117,7.117,0,0,0,2,7.039a.5.5,0,0,1-.5.5Z" transform="translate(0 -0.373)" fill="#7fccb4"/>
    <path id="Path_634" data-name="Path 634" d="M10.75,22.5A2.5,2.5,0,0,1,8.25,20a.5.5,0,1,1,1,0,1.5,1.5,0,0,0,3,0,.5.5,0,1,1,1,0A2.5,2.5,0,0,1,10.75,22.5Z" transform="translate(-2.417 -6.5)" fill="#232323"/>
    <path id="Path_635" data-name="Path 635" d="M14.167,15h-11a1.167,1.167,0,0,1-.759-2.053A4.468,4.468,0,0,0,4,9.525V7.667a4.667,4.667,0,1,1,9.333,0V9.525a4.467,4.467,0,0,0,1.585,3.417A1.166,1.166,0,0,1,14.167,15ZM8.667,4A3.671,3.671,0,0,0,5,7.667V9.525a5.464,5.464,0,0,1-1.94,4.18.166.166,0,0,0-.06.128A.168.168,0,0,0,3.167,14h11a.168.168,0,0,0,.167-.167.164.164,0,0,0-.059-.127,5.465,5.465,0,0,1-1.941-4.181V7.667A3.671,3.671,0,0,0,8.667,4Z" transform="translate(-0.333 -1)" fill="#232323"/>
    <path id="Path_636" data-name="Path 636" d="M11.75,3a.5.5,0,0,1-.5-.5V.5a.5.5,0,0,1,1,0v2A.5.5,0,0,1,11.75,3Z" transform="translate(-3.417)" fill="#232323"/>
  </g>
</svg>
