<svg id="translate_1_" data-name="translate (1)" xmlns="http://www.w3.org/2000/svg" width="10" height="10" viewBox="0 0 10 10">
  <path id="Path_650" data-name="Path 650" d="M5.208,0h-5A.208.208,0,0,0,0,.208v5a.208.208,0,0,0,.208.208H4.792A.208.208,0,0,0,5,5.208V5h.208a.208.208,0,0,0,.208-.208V.208A.208.208,0,0,0,5.208,0Z" fill="#f0f0f0"/>
  <path id="Path_651" data-name="Path 651" d="M234.874,234.667h5a.208.208,0,0,1,.208.208v5a.208.208,0,0,1-.208.208h-5a.208.208,0,0,1-.208-.208v-5A.208.208,0,0,1,234.874,234.667Z" transform="translate(-230.083 -230.084)" fill="#7fccb4"/>
  <g id="Group_425" data-name="Group 425" transform="translate(1.25 0.833)">
    <path id="Path_652" data-name="Path 652" d="M66.708,85.75h-2.5a.208.208,0,0,1,0-.417h2.5a.208.208,0,0,1,0,.417Z" transform="translate(-64 -84.5)" fill="#fafafa"/>
    <path id="Path_653" data-name="Path 653" d="M128.208,43.916a.208.208,0,0,1-.208-.208v-.833a.208.208,0,1,1,.417,0v.833A.208.208,0,0,1,128.208,43.916Z" transform="translate(-126.75 -42.666)" fill="#fafafa"/>
    <path id="Path_654" data-name="Path 654" d="M87.208,88.25a.208.208,0,0,1-.14-.055c-.178-.162-1.735-1.612-1.735-2.654a.208.208,0,0,1,.417,0c0,.728,1.154,1.94,1.6,2.346a.208.208,0,0,1-.14.362Z" transform="translate(-84.916 -84.5)" fill="#fafafa"/>
    <path id="Path_655" data-name="Path 655" d="M85.55,88.251a.208.208,0,0,1-.14-.362c.445-.406,1.6-1.618,1.6-2.346a.208.208,0,0,1,.417,0c0,1.042-1.557,2.492-1.735,2.654A.208.208,0,0,1,85.55,88.251Z" transform="translate(-84.925 -84.501)" fill="#fafafa"/>
    <path id="Path_656" data-name="Path 656" d="M301.375,281.721a.208.208,0,0,1-.195-.135l-1.055-2.813-1.055,2.813a.208.208,0,0,1-.39-.147l1.25-3.333a.217.217,0,0,1,.39,0l1.25,3.333a.208.208,0,0,1-.122.268A.2.2,0,0,1,301.375,281.721Z" transform="translate(-294.084 -273.388)" fill="#fafafa"/>
    <path id="Path_657" data-name="Path 657" d="M321.875,405.75h-1.667a.208.208,0,0,1,0-.417h1.667a.208.208,0,0,1,0,.417Z" transform="translate(-315 -398.25)" fill="#fafafa"/>
  </g>
  <g id="Group_426" data-name="Group 426" transform="translate(0.208 0.833)">
    <path id="Path_658" data-name="Path 658" d="M301.791,46a.208.208,0,0,1-.208-.208,2.712,2.712,0,0,0-2.708-2.708.208.208,0,1,1,0-.417A3.128,3.128,0,0,1,302,45.791.208.208,0,0,1,301.791,46Z" transform="translate(-293.041 -42.666)" fill="#455a64"/>
    <path id="Path_659" data-name="Path 659" d="M406.493,150.572a.208.208,0,0,1-.147-.061l-.833-.833a.208.208,0,0,1,.295-.295l.664.664.481-.642a.208.208,0,0,1,.334.25h0l-.625.833a.208.208,0,0,1-.152.083Z" transform="translate(-397.743 -147.239)" fill="#455a64"/>
    <path id="Path_660" data-name="Path 660" d="M45.792,302a3.128,3.128,0,0,1-3.125-3.125.208.208,0,1,1,.417,0,2.712,2.712,0,0,0,2.708,2.708.208.208,0,1,1,0,.417Z" transform="translate(-42.042 -293.666)" fill="#455a64"/>
    <path id="Path_661" data-name="Path 661" d="M10.874,299.905a.208.208,0,0,1-.167-.333l.625-.833a.208.208,0,0,1,.292-.042l.023.02.833.833a.208.208,0,0,1-.289.3l-.005-.005-.664-.663-.481.641A.208.208,0,0,1,10.874,299.905Z" transform="translate(-10.666 -293.655)" fill="#455a64"/>
  </g>
  <path id="Path_662" data-name="Path 662" d="M4.792,5.417H.208A.208.208,0,0,1,0,5.208v-5A.208.208,0,0,1,.208,0h5a.208.208,0,0,1,.208.208V4.792A.208.208,0,0,1,5.208,5H5v.208A.208.208,0,0,1,4.792,5.417ZM.417,5H4.583V4.792a.208.208,0,0,1,.208-.208H5V.417H.417Z" fill="#232323"/>
  <path id="Path_663" data-name="Path 663" d="M239.874,240.083h-5a.208.208,0,0,1-.208-.208v-5a.208.208,0,0,1,.208-.208h5a.208.208,0,0,1,.208.208v5A.208.208,0,0,1,239.874,240.083Zm-4.792-.417h4.583v-4.583h-4.583Z" transform="translate(-230.083 -230.083)" fill="#232323"/>
  <path id="Path_664" data-name="Path 664" d="M66.708,85.75h-2.5a.208.208,0,0,1,0-.417h2.5a.208.208,0,0,1,0,.417Z" transform="translate(-62.75 -83.666)" fill="#232323"/>
  <path id="Path_665" data-name="Path 665" d="M128.208,43.916a.208.208,0,0,1-.208-.208v-.833a.208.208,0,1,1,.417,0v.833A.208.208,0,0,1,128.208,43.916Z" transform="translate(-125.5 -41.833)" fill="#232323"/>
  <path id="Path_666" data-name="Path 666" d="M87.208,88.25a.208.208,0,0,1-.14-.055c-.178-.162-1.735-1.612-1.735-2.654a.208.208,0,0,1,.417,0c0,.728,1.154,1.94,1.6,2.346a.208.208,0,0,1-.14.362Z" transform="translate(-83.666 -83.666)" fill="#232323"/>
  <path id="Path_667" data-name="Path 667" d="M85.55,88.251a.208.208,0,0,1-.14-.362c.445-.406,1.6-1.618,1.6-2.346a.208.208,0,0,1,.417,0c0,1.042-1.557,2.492-1.735,2.654A.208.208,0,0,1,85.55,88.251Z" transform="translate(-83.675 -83.667)" fill="#232323"/>
  <path id="Path_668" data-name="Path 668" d="M301.375,281.721a.208.208,0,0,1-.195-.135l-1.055-2.813-1.055,2.813a.208.208,0,0,1-.39-.147l1.25-3.333a.217.217,0,0,1,.39,0l1.25,3.333a.208.208,0,0,1-.122.268A.2.2,0,0,1,301.375,281.721Z" transform="translate(-292.834 -272.554)" fill="#fff"/>
  <path id="Path_669" data-name="Path 669" d="M321.875,405.75h-1.667a.208.208,0,0,1,0-.417h1.667a.208.208,0,0,1,0,.417Z" transform="translate(-313.75 -397.417)" fill="#fff"/>
  <path id="Path_670" data-name="Path 670" d="M301.791,46a.208.208,0,0,1-.208-.208,2.712,2.712,0,0,0-2.708-2.708.208.208,0,1,1,0-.417A3.128,3.128,0,0,1,302,45.791.208.208,0,0,1,301.791,46Z" transform="translate(-292.833 -41.833)" fill="#232323"/>
  <path id="Path_671" data-name="Path 671" d="M406.493,150.572a.208.208,0,0,1-.147-.061l-.833-.833a.208.208,0,0,1,.295-.295l.664.664.481-.642a.208.208,0,0,1,.334.25h0l-.625.833a.208.208,0,0,1-.152.083Z" transform="translate(-397.535 -146.405)" fill="#232323"/>
  <path id="Path_672" data-name="Path 672" d="M45.792,302a3.128,3.128,0,0,1-3.125-3.125.208.208,0,1,1,.417,0,2.712,2.712,0,0,0,2.708,2.708.208.208,0,1,1,0,.417Z" transform="translate(-41.834 -292.833)" fill="#232323"/>
  <path id="Path_673" data-name="Path 673" d="M10.874,299.905a.208.208,0,0,1-.167-.333l.625-.833a.208.208,0,0,1,.292-.042l.023.02.833.833a.208.208,0,0,1-.289.3l-.005-.005-.664-.663-.481.641A.208.208,0,0,1,10.874,299.905Z" transform="translate(-10.458 -292.822)" fill="#232323"/>
</svg>
